# xmcd
#
# Track frame offsets:
#	150
#	15677
#	34595
#	50471
#	71061
#	87568
#	105526
#	124215
#	138226
#	154507
#
# Disc length: 2337 seconds
#
# Revision: 1
# Processed by: cddbd v1.5.2PL0 Copyright (c) Steve Scherf et al.
# Submitted via: EasyCDDAExtractor 11.0.0.1
#
DISCID=80091f0a
DTITLE=Various Artist - ΣΥΛΛΟΓΕΣ ΤΑ ΜΕΓΑΛΑ ΕΛΛΗΝΙΚΑ HITS
DYEAR=2006
DGENRE=ΛΑΪΚΑ
TTITLE0=Γιαννιάς Γιώργος - Ετοιμαζω ταξιδι
TTITLE1=ΤΣΑΛΙΚΗΣ ΓΙΩΡΓΟΣ - ΔΥΝΑΜΙΤΗΣ
TTITLE2=Ρόκκος Στέλιος - Μια φωτια στην αμμο
TTITLE3=MARIANTA PIERIDI - XAIRETISMATA
TTITLE4=ΝΙΚΟΣ ΒΕΡΤΗΣ - ΕΛΑ ΚΑΙ ΠΑΜΕ
TTITLE5=Goin' Through feat Ισορροπιστή - Ποσο μαλακας εισαι
TTITLE6=ΜΑΚΡΟΠΟΥΛΟΣ ΝΙΚΟΣ - ΛΙΓΟ ΕΓΩ, ΛΙΓΟ ΕΣΥ
TTITLE7=ΜΑΝΟΣ ΠΥΡΟΒΟΛΑΚΗΣ - Στης εκκλησιας την πορτα
TTITLE8=ΤΕΡΖΗ - ΤΕΤΟΙΑ ΓΥΝΑΙΚΑ
TTITLE9=Dimitris Korialas - Mia fora
EXTD=
EXTT0=
EXTT1=
EXTT2=
EXTT3=
EXTT4=
EXTT5=
EXTT6=
EXTT7=
EXTT8=
EXTT9=
PLAYORDER=
